PathFileType	4	(X/Y/Z)	../Python\walking\Walking16\task.trc
DataRate	CameraRate	NumFrames	NumMarkers	Units	OrigDataRate	OrigDataStartFrame	OrigNumFrames
200.000000	200.000000	6	30	mm	200.000000	56	452
Frame#	Time	C7			RBAK			CLAV			STRN			RASI			LASI			PE01			RTH1			RTH2			RTH3			RD5M			RTOE			LTH2			LTH3			LTB2			LTB3			LHEE			LTOE			LD5M			LTB1			RTB2			RHEE			RTB3			RTB1			LTH1			LPSI			PE03			PE02			RPSI			T10			
		X1	Y1	Z1	X2	Y2	Z2	X3	Y3	Z3	X4	Y4	Z4	X5	Y5	Z5	X6	Y6	Z6	X7	Y7	Z7	X8	Y8	Z8	X9	Y9	Z9	X10	Y10	Z10	X11	Y11	Z11	X12	Y12	Z12	X13	Y13	Z13	X14	Y14	Z14	X15	Y15	Z15	X16	Y16	Z16	X17	Y17	Z17	X18	Y18	Z18	X19	Y19	Z19	X20	Y20	Z20	X21	Y21	Z21	X22	Y22	Z22	X23	Y23	Z23	X24	Y24	Z24	X25	Y25	Z25	X26	Y26	Z26	X27	Y27	Z27	X28	Y28	Z28	X29	Y29	Z29	X30	Y30	Z30	

57	0.28	-1130.587158203125	1331.22900390625	165.2154083251954	-1184.082763671875	1225.786987304688	262.971649169922	-1010.848022460938	1232.5166015625	163.9404296875001	-951.0630493164067	1048.506103515625	164.2979736328126	-986.4862670898442	860.7129516601567	287.5513916015626	-983.4699707031255	838.4159545898442	62.34001541137698	-1181.669555664063	932.1193847656255	179.9714813232422	-974.5625610351567	575.578796386719	324.3021545410157	-931.7619628906255	511.0597229003909	304.4903259277345	-924.113891601563	571.6763305664065	315.0333557128907	-829.1435546875005	14.37107753753663	271.1491699218751	-792.479858398438	29.69975662231447	216.8307495117189	-1114.497192382813	525.885192871094	34.4130210876465	-1037.70361328125	551.1979980468752	28.37254142761232	-1311.165405273438	282.7593994140626	60.76523208618167	-1263.156982421875	272.7868957519532	56.33951187133792	-1452.443725585938	194.7769622802736	130.8136291503907	-1365.521728515625	41.01342391967775	110.0193405151368	-1398.407470703125	58.69253540039065	70.73796844482425	-1250.899536132813	332.4083557128907	45.3098602294922	-926.694213867188	249.2323760986329	291.7955322265626	-979.6901855468755	26.46486282348634	206.4192047119142	-895.9120483398442	214.6574707031251	272.5223999023439	-885.4692993164067	292.3106689453126	280.8243103027345	-1082.529174804688	577.8022460937502	22.41307067871094	-1184.02197265625	893.7553710937505	139.8277893066407	-1196.058471679688	869.2619628906255	159.2799987792969	-1195.79638671875	873.900512695313	209.7413940429689	-1183.446411132813	898.914916992188	229.3494567871095	-1163.758056640625	1031.441284179688	166.3397674560547	
58	0.285	-1123.45166015625	1332.603515625	165.5845794677735	-1176.27197265625	1227.32568359375	263.9279174804689	-1003.770202636719	1233.9384765625	163.6967773437501	-944.0605468750005	1049.810668945313	163.9593048095704	-979.6577148437505	861.8422851562505	288.100311279297	-976.9913940429692	839.4821166992192	62.89543533325198	-1174.97265625	933.6081542968755	180.3890991210938	-971.0558471679692	575.8004150390627	324.6006164550782	-929.0727539062505	510.7332153320315	304.947235107422	-920.6230468750005	571.242858886719	315.6570129394532	-829.1845703125005	14.40440845489503	271.1149291992189	-792.4782714843755	29.69763755798341	216.7606964111329	-1103.030639648438	525.5106201171877	34.3160858154297	-1026.74560546875	552.046325683594	28.19558143615724	-1297.821044921875	284.5350646972657	60.92333602905276	-1249.939086914063	274.0985107421876	56.56265258789065	-1440.218505859375	198.2554626464845	131.7974853515626	-1353.920654296875	43.72369766235353	108.8311843872071	-1387.047119140625	62.56240844726565	70.23036956787112	-1237.034423828125	333.4656372070314	45.24202346801759	-925.4298706054692	249.139617919922	291.9758911132814	-979.7317504882817	26.44865608215333	206.3869476318361	-894.8543090820317	214.3472442626954	272.8080139160157	-883.8364868164067	291.9099121093751	281.1590270996095	-1072.041137695313	577.9925537109377	22.38458442687989	-1177.26025390625	895.1179809570317	140.3821411132813	-1189.291625976563	870.709350585938	159.7654571533204	-1189.056640625	875.411987304688	210.2233428955079	-1176.588134765625	900.6381225585942	229.9883117675782	-1156.697631835938	1032.891235351563	167.1608276367188	
59	0.29	-1116.3359375	1333.996215820313	165.9326477050782	-1168.479858398438	1228.89990234375	264.8776855468751	-996.7256469726567	1235.36474609375	163.4234619140626	-937.1162719726567	1051.111206054688	163.5864868164063	-972.8748168945317	862.9379272460942	288.6208801269532	-970.604858398438	840.5935668945317	63.39101028442386	-1168.314331054688	935.108764648438	180.8621673583985	-967.5852050781255	576.0551757812502	324.869842529297	-926.392700195313	510.476989746094	305.3475341796876	-917.1875000000005	570.860778808594	316.2157287597657	-829.2250366210942	14.41955566406251	271.0851135253907	-792.4877929687505	29.6870460510254	216.6995391845704	-1091.602294921875	525.3094482421877	34.25782775878908	-1015.907653808594	553.084411621094	27.93765068054201	-1284.217895507813	286.2707519531251	61.09857177734378	-1236.441650390625	275.4144287109376	56.8127250671387	-1427.67578125	201.2307739257814	132.7321929931641	-1341.201049804688	46.45576858520509	107.6327514648438	-1374.73046875	66.23824310302737	69.679557800293	-1222.978515625	334.5670471191407	45.21092987060548	-924.1916503906255	249.0632934570314	292.1358337402345	-979.7729492187505	26.44275093078615	206.3620147705079	-893.8329467773442	214.0565338134767	273.0625305175782	-882.2766723632817	291.531707763672	281.4529724121095	-1061.602661132813	578.3315429687502	22.33910751342774	-1170.5732421875	896.5072631835942	140.9848785400391	-1182.598510742188	872.1882324218755	160.286361694336	-1182.372192382813	876.932250976563	210.7420043945314	-1169.78466796875	902.3538208007817	230.6534271240236	-1149.687133789063	1034.364379882813	168.0085144042969	
60	0.295	-1109.2412109375	1335.402099609375	166.2590942382813	-1160.710205078125	1230.504028320313	265.8179321289064	-989.7153320312505	1236.790405273438	163.1221160888672	-930.2304687500005	1052.404052734375	163.1819000244141	-966.1354980468755	863.9985961914067	289.1125488281251	-964.3053588867192	841.746948242188	63.82718276977542	-1161.691162109375	936.616577148438	181.3892822265626	-964.109497070313	576.3519287109377	325.1120910644532	-923.6714477539067	510.303649902344	305.6895446777345	-913.7663574218755	570.5451660156252	316.6990051269532	-829.2624511718755	14.42040157318116	271.0617980957032	-792.503051757813	29.66686058044435	216.6476898193361	-1080.218505859375	525.2886962890627	34.24555587768556	-1005.194152832032	554.3222656250002	27.59704017639162	-1270.382202148438	287.9602355957032	61.300651550293	-1222.6904296875	276.7333984375001	57.08069610595706	-1414.821533203125	203.6832733154298	133.6100006103516	-1327.442016601563	49.15680694580081	106.4613342285157	-1361.497680664063	69.66496276855472	69.10400390625003	-1208.767822265625	335.7214660644532	45.2296829223633	-922.9688110351567	249.0033569335939	292.2739257812501	-979.811645507813	26.44905662536623	206.3438720703126	-892.837280273438	213.7853088378907	273.2805480957032	-880.7761230468755	291.1778564453126	281.7008666992189	-1051.219970703125	578.8254394531252	22.28264427185059	-1163.957885742188	897.9187622070317	141.6340484619141	-1175.975463867188	873.6935424804692	160.841537475586	-1175.740356445313	878.4568481445317	211.2962493896486	-1163.033813476563	904.056762695313	231.3434295654298	-1142.72607421875	1035.85546875	168.8803710937501	
61	0.3	-1102.168579101563	1336.815673828125	166.5635528564454	-1152.966674804688	1232.132202148438	266.7456970214845	-982.7402954101567	1238.2109375	162.7945404052735	-923.402954101563	1053.685424804688	162.7482299804688	-959.4377441406255	865.0237426757817	289.5752868652345	-958.087036132813	842.9391479492192	64.20558166503909	-1155.099487304688	938.1269531250005	181.9685363769532	-960.5932006835942	576.696228027344	325.3286437988282	-920.8695678710942	510.2180786132815	305.9728393554689	-910.3234252929692	570.3047485351565	317.0977172851564	-829.295288085938	14.41122817993165	271.0457458496095	-792.5200195312505	29.63743400573732	216.6047973632814	-1068.879272460938	525.450378417969	34.28408813476564	-994.5993652343755	555.7632446289065	27.18020248413087	-1256.33740234375	289.591278076172	61.53610610961917	-1208.708984375	278.0496826171876	57.35734939575198	-1401.659790039063	205.5991516113282	134.4236297607422	-1312.729736328125	51.77551651000979	105.3495101928712	-1347.397094726563	72.79387664794925	68.52153778076175	-1194.434326171875	336.9296875000001	45.30756759643556	-921.7545776367192	248.9591522216798	292.3883361816407	-979.846313476563	26.46860694885255	206.3314819335939	-891.8596191406255	213.5330047607423	273.4580993652345	-879.3234863281255	290.8493041992189	281.8988037109376	-1040.893432617188	579.4763183593752	22.22163009643555	-1157.41015625	899.3477172851567	142.3271636962891	-1169.41845703125	875.220092773438	161.4293518066407	-1169.157958984375	879.9812011718755	211.8844146728517	-1156.332763671875	905.7418823242192	232.0566864013673	-1135.813842773438	1037.359497070313	169.7737579345704	
62	0.305	-1095.119140625	1338.23193359375	166.8457489013672	-1145.25244140625	1233.778564453125	267.658172607422	-975.8010864257817	1239.62158203125	162.4426422119141	-916.6332397460942	1054.9521484375	162.2884674072266	-952.7792358398442	866.0136108398442	290.0093383789064	-951.9430541992192	844.1668090820317	64.52894592285159	-1148.53564453125	939.6350708007817	182.5975189208985	-957.0076293945317	577.0901489257815	325.5195922851564	-917.960327148438	510.2181701660159	306.1981811523439	-906.8288574218755	570.1419677734377	317.4044494628907	-829.3226928710942	14.3962688446045	271.0366821289064	-792.5356445312505	29.60011672973634	216.5698242187501	-1057.579345703125	525.791442871094	34.37578582763673	-984.1082153320317	557.4040527343752	26.70137977600099	-1242.104736328125	291.1464843750001	61.80752563476565	-1194.518920898438	279.353485107422	57.63429260253909	-1388.192016601563	206.9701385498048	135.1668548583985	-1297.15234375	54.2637748718262	104.3232421875001	-1332.482788085938	75.58378601074222	67.94834136962893	-1180.006103515625	338.1846313476564	45.44909667968751	-920.545776367188	248.9295654296876	292.4769592285157	-979.8762817382817	26.50172805786134	206.3234252929689	-890.8945922851567	213.2986755371095	273.5925903320314	-877.9096679687505	290.5462951660157	282.0442504882814	-1030.618286132813	580.2825927734377	22.16275787353516	-1150.925903320313	900.7892456054692	143.0612487792969	-1162.923095703125	876.7624511718755	162.0476837158204	-1162.621459960938	881.500610351563	212.5043792724611	-1149.678466796875	907.404174804688	232.7913513183595	-1128.94921875	1038.870849609375	170.6859283447266	
